<svg width="112" height="112" viewBox="0 0 112 112" fill="none" xmlns="http://www.w3.org/2000/svg">
<path d="M41.0041 26.9875H15.0291C14.4608 26.9875 14 27.4483 14 28.0167C14 28.585 14.4608 29.0458 15.0291 29.0458H41.0041C41.5724 29.0458 42.0332 28.585 42.0332 28.0167C42.0332 27.4483 41.5724 26.9875 41.0041 26.9875Z" fill="white"/>
<path d="M29.0465 15.0291C29.0465 14.4608 28.5858 14 28.0174 14C27.449 14 26.9883 14.4608 26.9883 15.0291V41.0041C26.9883 41.5724 27.449 42.0332 28.0174 42.0332C28.5858 42.0332 29.0465 41.5724 29.0465 41.0041V15.0291Z" fill="white"/>
<path d="M97.0705 26.9875H71.0955C70.5272 26.9875 70.0664 27.4483 70.0664 28.0167C70.0664 28.585 70.5272 29.0458 71.0955 29.0458H97.0705C97.6388 29.0458 98.0996 28.585 98.0996 28.0167C98.0996 27.4483 97.6388 26.9875 97.0705 26.9875Z" fill="white"/>
<path d="M85.1124 15.0291C85.1124 14.4608 84.6517 14 84.0833 14C83.515 14 83.0542 14.4608 83.0542 15.0291V41.0041C83.0542 41.5724 83.515 42.0332 84.0833 42.0332C84.6517 42.0332 85.1124 41.5724 85.1124 41.0041V15.0291Z" fill="white"/>
<path d="M41.0041 83.0536H15.0291C14.4608 83.0536 14 83.5144 14 84.0828C14 84.6511 14.4608 85.1119 15.0291 85.1119H41.0041C41.5724 85.1119 42.0332 84.6511 42.0332 84.0828C42.0332 83.5144 41.5724 83.0536 41.0041 83.0536Z" fill="white"/>
<path d="M29.046 71.0956C29.046 70.5272 28.5853 70.0665 28.0169 70.0665C27.4486 70.0665 26.9878 70.5272 26.9878 71.0956V97.0705C26.9878 97.6389 27.4486 98.0996 28.0169 98.0996C28.5853 98.0996 29.046 97.6389 29.046 97.0705V71.0956Z" fill="white"/>
<path d="M97.0705 83.0536H71.0955C70.5272 83.0536 70.0664 83.5144 70.0664 84.0828C70.0664 84.6511 70.5272 85.1119 71.0955 85.1119H97.0705C97.6388 85.1119 98.0996 84.6511 98.0996 84.0828C98.0996 83.5144 97.6388 83.0536 97.0705 83.0536Z" fill="white"/>
<path d="M85.1124 71.0956C85.1124 70.5272 84.6517 70.0665 84.0833 70.0665C83.515 70.0665 83.0542 70.5272 83.0542 71.0956V97.0705C83.0542 97.6389 83.515 98.0996 84.0833 98.0996C84.6517 98.0996 85.1124 97.6389 85.1124 97.0705V71.0956Z" fill="white"/>
</svg>
